<svg width="88" height="56" viewBox="0 0 88 56" fill="none" xmlns="http://www.w3.org/2000/svg">
<path d="M43.6479 39V33.067H46.2319C46.7192 33.067 47.1017 33.2058 47.3794 33.4835C47.6627 33.7612 47.8044 34.1323 47.8044 34.597C47.8044 34.8917 47.7534 35.1297 47.6514 35.311C47.5494 35.4867 47.4191 35.617 47.2604 35.702C47.1074 35.787 46.9544 35.838 46.8014 35.855V35.906C46.9204 35.9117 47.0479 35.9428 47.1839 35.9995C47.3256 36.0505 47.4587 36.1298 47.5834 36.2375C47.7137 36.3452 47.8186 36.4868 47.8979 36.6625C47.9772 36.8325 48.0169 37.0422 48.0169 37.2915C48.0169 37.6088 47.9489 37.8978 47.8129 38.1585C47.6826 38.4192 47.5012 38.626 47.2689 38.779C47.0422 38.9263 46.7816 39 46.4869 39H43.6479ZM44.5489 38.218H46.2234C46.3934 38.218 46.5407 38.1868 46.6654 38.1245C46.7957 38.0622 46.8949 37.9743 46.9629 37.861C47.0309 37.742 47.0649 37.5975 47.0649 37.4275V37.1385C47.0649 36.9685 47.0309 36.8268 46.9629 36.7135C46.8949 36.5945 46.7957 36.5038 46.6654 36.4415C46.5407 36.3792 46.3934 36.348 46.2234 36.348H44.5489V38.218ZM44.5489 35.5915H46.0704C46.2347 35.5915 46.3736 35.5632 46.4869 35.5065C46.6059 35.4442 46.6966 35.3592 46.7589 35.2515C46.8212 35.1438 46.8524 35.0135 46.8524 34.8605V34.58C46.8524 34.427 46.8212 34.2967 46.7589 34.189C46.6966 34.0757 46.6059 33.9907 46.4869 33.934C46.3736 33.8773 46.2347 33.849 46.0704 33.849H44.5489V35.5915ZM48.9196 39V34.5885H49.7866V35.447H49.8291C49.8745 35.2997 49.9481 35.1608 50.0501 35.0305C50.1521 34.9002 50.2853 34.7953 50.4496 34.716C50.6196 34.631 50.8208 34.5885 51.0531 34.5885H51.3081V35.43H50.9341C50.6905 35.43 50.4836 35.4612 50.3136 35.5235C50.1436 35.5802 50.0133 35.6595 49.9226 35.7615C49.832 35.8635 49.7866 35.991 49.7866 36.144V39H48.9196ZM52.9322 39.102C52.4732 39.102 52.1191 38.983 51.8697 38.745C51.6204 38.507 51.4957 38.1868 51.4957 37.7845C51.4957 37.4955 51.5666 37.2547 51.7082 37.062C51.8499 36.8637 52.0596 36.7163 52.3372 36.62C52.6149 36.518 52.9606 36.467 53.3742 36.467H54.1902V36.0845C54.1902 35.8012 54.1137 35.5858 53.9607 35.4385C53.8134 35.2855 53.5782 35.209 53.2552 35.209C52.9946 35.209 52.7792 35.2657 52.6092 35.379C52.4392 35.4923 52.3004 35.6397 52.1927 35.821L51.6657 35.345C51.8074 35.1013 52.0114 34.8973 52.2777 34.733C52.5441 34.5687 52.8869 34.4865 53.3062 34.4865C53.8672 34.4865 54.3007 34.6197 54.6067 34.886C54.9127 35.1523 55.0657 35.5292 55.0657 36.0165V38.2775H55.5332V39H55.0487C54.8164 39 54.6379 38.9377 54.5132 38.813C54.3886 38.6883 54.3092 38.5297 54.2752 38.337L54.2582 38.2605H54.2157C54.1307 38.5382 53.9749 38.7478 53.7482 38.8895C53.5216 39.0312 53.2496 39.102 52.9322 39.102ZM53.1617 38.422C53.3601 38.422 53.5357 38.3937 53.6887 38.337C53.8417 38.2747 53.9636 38.1897 54.0542 38.082C54.1449 37.9687 54.1902 37.8412 54.1902 37.6995V37.045H53.3827C53.0484 37.045 52.7991 37.096 52.6347 37.198C52.4704 37.3 52.3882 37.4502 52.3882 37.6485V37.81C52.3882 38.0083 52.4591 38.1613 52.6007 38.269C52.7424 38.371 52.9294 38.422 53.1617 38.422ZM56.2124 39V34.5885H57.0794V39H56.2124ZM56.6459 33.747C56.4645 33.747 56.3314 33.7045 56.2464 33.6195C56.167 33.5288 56.1274 33.4155 56.1274 33.2795V33.1435C56.1274 33.0075 56.167 32.897 56.2464 32.812C56.3314 32.727 56.4645 32.6845 56.6459 32.6845C56.8272 32.6845 56.9575 32.727 57.0369 32.812C57.1219 32.897 57.1644 33.0075 57.1644 33.1435V33.2795C57.1644 33.4155 57.1219 33.5288 57.0369 33.6195C56.9575 33.7045 56.8272 33.747 56.6459 33.747ZM58.182 39V34.5885H59.049V35.3195H59.0915C59.1878 35.0758 59.3351 34.8775 59.5335 34.7245C59.7318 34.5658 59.9981 34.4865 60.3325 34.4865C60.7858 34.4865 61.14 34.6367 61.395 34.937C61.65 35.2317 61.7775 35.651 61.7775 36.195V39H60.902V36.3055C60.902 35.9485 60.8311 35.6822 60.6895 35.5065C60.5478 35.3252 60.3296 35.2345 60.035 35.2345C59.8706 35.2345 59.712 35.2628 59.559 35.3195C59.4116 35.3762 59.2898 35.4612 59.1935 35.5745C59.0971 35.6878 59.049 35.8323 59.049 36.008V39H58.182ZM63.9972 39C63.6969 39 63.4674 38.9178 63.3087 38.7535C63.1501 38.5892 63.0707 38.3653 63.0707 38.082V35.311H62.3822V34.5885H62.7562C62.9149 34.5885 63.0226 34.5545 63.0792 34.4865C63.1359 34.4185 63.1642 34.3108 63.1642 34.1635V33.373H63.9462V34.5885H64.8812V35.311H63.9462V38.2775H64.8132V39H63.9972ZM65.6573 39V34.5885H66.5243V35.447H66.5668C66.6122 35.2997 66.6858 35.1608 66.7878 35.0305C66.8898 34.9002 67.023 34.7953 67.1873 34.716C67.3573 34.631 67.5585 34.5885 67.7908 34.5885H68.0458V35.43H67.6718C67.4282 35.43 67.2213 35.4612 67.0513 35.5235C66.8813 35.5802 66.751 35.6595 66.6603 35.7615C66.5697 35.8635 66.5243 35.991 66.5243 36.144V39H65.6573ZM70.2985 39.102C69.8849 39.102 69.525 39.0085 69.219 38.8215C68.9187 38.6288 68.6835 38.3597 68.5135 38.014C68.3492 37.6683 68.267 37.2603 68.267 36.79C68.267 36.3253 68.3492 35.9202 68.5135 35.5745C68.6779 35.2288 68.9102 34.9625 69.2105 34.7755C69.5109 34.5828 69.8679 34.4865 70.2815 34.4865C70.7065 34.4865 71.0635 34.5828 71.3525 34.7755C71.6415 34.9682 71.8597 35.2317 72.007 35.566C72.16 35.8947 72.2365 36.263 72.2365 36.671V37.011H69.1765V37.1725C69.1765 37.5238 69.2785 37.8128 69.4825 38.0395C69.6922 38.2662 69.9897 38.3795 70.375 38.3795C70.647 38.3795 70.8794 38.3172 71.072 38.1925C71.2647 38.0678 71.4234 37.9007 71.548 37.691L72.075 38.184C71.9164 38.456 71.684 38.677 71.378 38.847C71.072 39.017 70.7122 39.102 70.2985 39.102ZM69.1765 36.4245H71.3185V36.3395C71.3185 36.1072 71.276 35.9032 71.191 35.7275C71.1117 35.5518 70.9927 35.4158 70.834 35.3195C70.681 35.2232 70.4997 35.175 70.29 35.175C70.069 35.175 69.8735 35.226 69.7035 35.328C69.5392 35.43 69.4089 35.5717 69.3125 35.753C69.2219 35.9287 69.1765 36.1327 69.1765 36.365V36.4245ZM74.7418 39.102C74.3281 39.102 73.9683 39.0085 73.6623 38.8215C73.3619 38.6288 73.1268 38.3597 72.9568 38.014C72.7924 37.6683 72.7103 37.2603 72.7103 36.79C72.7103 36.3253 72.7924 35.9202 72.9568 35.5745C73.1211 35.2288 73.3534 34.9625 73.6538 34.7755C73.9541 34.5828 74.3111 34.4865 74.7248 34.4865C75.1498 34.4865 75.5068 34.5828 75.7958 34.7755C76.0848 34.9682 76.3029 35.2317 76.4503 35.566C76.6033 35.8947 76.6798 36.263 76.6798 36.671V37.011H73.6198V37.1725C73.6198 37.5238 73.7218 37.8128 73.9258 38.0395C74.1354 38.2662 74.4329 38.3795 74.8183 38.3795C75.0903 38.3795 75.3226 38.3172 75.5153 38.1925C75.7079 38.0678 75.8666 37.9007 75.9913 37.691L76.5183 38.184C76.3596 38.456 76.1273 38.677 75.8213 38.847C75.5153 39.017 75.1554 39.102 74.7418 39.102ZM73.6198 36.4245H75.7618V36.3395C75.7618 36.1072 75.7193 35.9032 75.6343 35.7275C75.5549 35.5518 75.4359 35.4158 75.2773 35.3195C75.1243 35.2232 74.9429 35.175 74.7333 35.175C74.5123 35.175 74.3168 35.226 74.1468 35.328C73.9824 35.43 73.8521 35.5717 73.7558 35.753C73.6651 35.9287 73.6198 36.1327 73.6198 36.365V36.4245Z" fill="#003087"/>
<path d="M31.708 18.6157C31.5677 18.6157 31.4484 18.7176 31.4265 18.8564L29.8018 29.1599C29.7959 29.1975 29.7982 29.236 29.8086 29.2726C29.8189 29.3093 29.8371 29.3433 29.8619 29.3722C29.8867 29.4012 29.9174 29.4244 29.952 29.4403C29.9866 29.4563 30.0243 29.4645 30.0624 29.4646H31.9891C32.1293 29.4646 32.2487 29.3625 32.2707 29.2239L32.7479 26.1982C32.7697 26.0597 32.8891 25.9576 33.0295 25.9576H34.7812C36.828 25.9576 38.5655 24.4641 38.8829 22.4405C39.2029 20.3997 37.6086 18.6202 35.3489 18.6157H31.708ZM33.581 20.9159H34.9826C36.1365 20.9159 36.5123 21.5967 36.3935 22.3497C36.2747 23.1042 35.6911 23.66 34.5748 23.66H33.1483L33.581 20.9159ZM42.8017 21.6163C42.3152 21.6181 41.7554 21.7177 41.1269 21.9795C39.6852 22.5804 38.9929 23.8223 38.6989 24.7277C38.6989 24.7277 37.763 27.49 39.8773 29.0076C39.8773 29.0076 41.8381 30.4686 44.0454 28.9176L44.0074 29.1599C44.0015 29.1975 44.0038 29.2359 44.0141 29.2725C44.0245 29.3092 44.0427 29.3431 44.0674 29.3721C44.0921 29.401 44.1228 29.4243 44.1573 29.4402C44.1919 29.4562 44.2295 29.4645 44.2675 29.4646H46.0967C46.237 29.4646 46.3562 29.3625 46.3782 29.2239L47.4908 22.168C47.4968 22.1304 47.4945 22.0919 47.4842 22.0552C47.4739 22.0186 47.4557 21.9846 47.431 21.9556C47.4062 21.9266 47.3755 21.9033 47.341 21.8873C47.3064 21.8713 47.2687 21.863 47.2306 21.8629H45.4015C45.2611 21.8629 45.1417 21.965 45.12 22.1036L45.0602 22.4834C45.0602 22.4834 44.2615 21.6108 42.8017 21.6163ZM42.8615 23.8449C43.0716 23.8449 43.2637 23.8739 43.4361 23.9293C44.2253 24.1826 44.6727 24.9408 44.5432 25.7626C44.3835 26.7745 43.5537 27.5196 42.4894 27.5196C42.2795 27.5196 42.0874 27.4908 41.9148 27.4355C41.1258 27.1821 40.6756 26.4239 40.8051 25.6021C40.9648 24.5902 41.7972 23.8449 42.8615 23.8449Z" fill="#003087"/>
<path d="M58.0481 18.6157C57.9077 18.6157 57.7885 18.7176 57.7666 18.8564L56.1419 29.1599C56.136 29.1975 56.1383 29.236 56.1487 29.2726C56.159 29.3093 56.1772 29.3433 56.202 29.3722C56.2268 29.4012 56.2575 29.4244 56.2921 29.4403C56.3267 29.4563 56.3643 29.4645 56.4024 29.4646H58.3292C58.4694 29.4646 58.5888 29.3625 58.6108 29.2239L59.088 26.1982C59.1098 26.0597 59.2292 25.9576 59.3695 25.9576H61.1213C63.1681 25.9576 64.9054 24.4641 65.2226 22.4405C65.5428 20.3997 63.9487 18.6202 61.689 18.6157H58.0481ZM59.9211 20.9159H61.3227C62.4766 20.9159 62.8524 21.5967 62.7336 22.3497C62.6148 23.1042 62.0314 23.66 60.9149 23.66H59.4884L59.9211 20.9159ZM69.1416 21.6163C68.6551 21.6181 68.0952 21.7177 67.4667 21.9795C66.0251 22.5804 65.3327 23.8223 65.0387 24.7277C65.0387 24.7277 64.1033 27.49 66.2176 29.0076C66.2176 29.0076 68.178 30.4686 70.3855 28.9176L70.3475 29.1599C70.3415 29.1975 70.3439 29.236 70.3542 29.2726C70.3646 29.3093 70.3828 29.3433 70.4076 29.3722C70.4324 29.4012 70.4631 29.4244 70.4977 29.4403C70.5323 29.4563 70.5699 29.4645 70.608 29.4646H72.437C72.5773 29.4646 72.6965 29.3625 72.7185 29.2239L73.8315 22.168C73.8375 22.1304 73.8352 22.0918 73.8248 22.0551C73.8145 22.0184 73.7963 21.9844 73.7715 21.9554C73.7468 21.9264 73.716 21.9031 73.6814 21.8872C73.6467 21.8712 73.609 21.8629 73.5709 21.8629H71.7418C71.6014 21.8629 71.482 21.965 71.4603 22.1036L71.4005 22.4834C71.4005 22.4834 70.6014 21.6108 69.1416 21.6163ZM69.2014 23.8449C69.4115 23.8449 69.6036 23.8739 69.776 23.9293C70.5652 24.1826 71.0126 24.9408 70.8831 25.7626C70.7234 26.7745 69.8935 27.5196 68.8293 27.5196C68.6194 27.5196 68.4273 27.4908 68.2547 27.4355C67.4657 27.1821 67.0155 26.4239 67.1449 25.6021C67.3046 24.5902 68.1371 23.8449 69.2014 23.8449Z" fill="#0070E0"/>
<path d="M48.3587 21.8629C48.2137 21.8629 48.1106 22.0045 48.1549 22.1424L50.1602 28.3652L48.347 31.2977C48.259 31.4401 48.3613 31.6239 48.5287 31.6239H50.6717C50.733 31.6239 50.7933 31.608 50.8466 31.5779C50.9 31.5478 50.9447 31.5044 50.9764 31.4519L56.5769 22.1872C56.6629 22.0448 56.5602 21.8627 56.3939 21.8627H54.251C54.1891 21.8628 54.1283 21.8789 54.0746 21.9096C54.0208 21.9403 53.976 21.9845 53.9445 22.0377L51.74 25.7596L50.621 22.0653C50.5845 21.9451 50.4736 21.8627 50.3481 21.8627L48.3587 21.8629Z" fill="#003087"/>
<path d="M75.9097 18.6157C75.7695 18.6157 75.6501 18.7178 75.6281 18.8564L74.003 29.1595C73.997 29.1971 73.9993 29.2356 74.0097 29.2723C74.02 29.3091 74.0382 29.3431 74.063 29.3721C74.0877 29.4011 74.1185 29.4244 74.1531 29.4403C74.1878 29.4563 74.2255 29.4646 74.2636 29.4646H76.1904C76.3305 29.4646 76.4499 29.3625 76.4719 29.2239L78.0966 18.9204C78.1025 18.8828 78.1002 18.8444 78.0899 18.8077C78.0795 18.7711 78.0613 18.7372 78.0366 18.7082C78.0119 18.6793 77.9812 18.656 77.9466 18.6401C77.9121 18.6241 77.8745 18.6158 77.8364 18.6157H75.9097Z" fill="#0070E0"/>
<path d="M15.6449 18.6157C15.5208 18.6158 15.4007 18.6602 15.3064 18.7408C15.2121 18.8215 15.1496 18.9331 15.1301 19.0557L14.2749 24.48C14.3148 24.2267 14.5331 24.04 14.7896 24.04H17.2958C19.818 24.04 21.9583 22.2 22.3493 19.7066C22.3784 19.5204 22.3949 19.3325 22.3987 19.1441C21.7577 18.808 21.0047 18.6157 20.1797 18.6157H15.6449Z" fill="#001C64"/>
<path d="M22.3987 19.1443C22.395 19.3327 22.3785 19.5206 22.3494 19.7068C21.9583 22.2003 19.8179 24.0402 17.2958 24.0402H14.7896C14.5333 24.0402 14.3148 24.2267 14.2749 24.4803L13.4885 29.4648L12.996 32.5918C12.9864 32.6522 12.99 32.7139 13.0065 32.7728C13.0231 32.8317 13.0523 32.8863 13.092 32.9328C13.1317 32.9793 13.1811 33.0167 13.2367 33.0423C13.2922 33.0679 13.3527 33.0811 13.4138 33.0811H16.1341C16.2582 33.081 16.3782 33.0366 16.4725 32.956C16.5669 32.8753 16.6294 32.7637 16.6488 32.6411L17.3653 28.0966C17.3847 27.9739 17.4472 27.8622 17.5417 27.7816C17.6361 27.7009 17.7562 27.6566 17.8804 27.6566H19.482C22.0042 27.6566 24.1445 25.8166 24.5355 23.3231C24.8132 21.5534 23.9219 19.943 22.3987 19.1443Z" fill="#0070E0"/>
<path d="M12.5545 15C12.2981 15 12.0796 15.1865 12.0398 15.4396L9.90516 28.9754C9.86468 29.2324 10.0632 29.4648 10.3234 29.4648H13.4889L14.2749 24.4803L15.1301 19.056C15.1495 18.9334 15.212 18.8217 15.3064 18.7411C15.4007 18.6604 15.5207 18.616 15.6448 18.6159H20.1797C21.0049 18.6159 21.7577 18.8085 22.3986 19.1444C22.4425 16.8742 20.5693 15 17.9939 15H12.5545Z" fill="#003087"/>
</svg>
