<svg width="120" height="60" viewBox="0 0 120 60" fill="none" xmlns="http://www.w3.org/2000/svg">
<path d="M92.4127 21.5107H85.8142C85.3631 21.5107 84.9791 21.839 84.9088 22.2847L82.2405 39.2038C82.188 39.5377 82.4457 39.8396 82.7837 39.8396H86.1694C86.485 39.8396 86.7542 39.61 86.8032 39.2978L87.56 34.5014C87.6302 34.0557 88.0143 33.7274 88.4656 33.7274H90.5536C94.8996 33.7274 97.4078 31.624 98.0634 27.4554C98.3585 25.6322 98.0753 24.1996 97.2215 23.1966C96.2832 22.0938 94.6202 21.5107 92.4127 21.5107ZM93.1742 27.6899C92.8136 30.0585 91.005 30.0585 89.255 30.0585H88.2598L88.9579 25.6363C89.0003 25.3688 89.2307 25.1719 89.5012 25.1719H89.9576C91.1485 25.1719 92.2736 25.1719 92.8534 25.8504C93.2006 26.2567 93.3053 26.8584 93.1742 27.6899Z" fill="white"/>
<path d="M45.3516 21.5107H38.7534C38.3024 21.5107 37.9183 21.839 37.8478 22.2847L35.1794 39.2038C35.1269 39.5377 35.3849 39.8396 35.723 39.8396H38.8735C39.3246 39.8396 39.7086 39.5116 39.7792 39.0659L40.4992 34.5014C40.5695 34.0557 40.9535 33.7274 41.4046 33.7274H43.4926C47.8388 33.7274 50.347 31.624 51.0027 27.4554C51.2977 25.6322 51.0145 24.1996 50.1611 23.1966C49.2222 22.0938 47.5589 21.5107 45.3516 21.5107ZM46.1132 27.6899C45.7526 30.0585 43.9436 30.0585 42.1943 30.0585H41.1988L41.8968 25.6363C41.9392 25.3688 42.1694 25.1719 42.4401 25.1719H42.8965C44.0875 25.1719 45.2126 25.1719 45.7923 25.8504C46.1393 26.2567 46.2443 26.8584 46.1132 27.6899Z" fill="white"/>
<path d="M65.0729 27.6143H61.9137C61.643 27.6143 61.4126 27.8112 61.3702 28.0787L61.2314 28.9621L61.0104 28.6421C60.326 27.649 58.8012 27.3171 57.2784 27.3171C53.788 27.3171 50.8059 29.9624 50.2255 33.6722C49.9234 35.523 50.3522 37.2919 51.4017 38.5264C52.3657 39.6607 53.7417 40.1328 55.3811 40.1328C58.1944 40.1328 59.7552 38.325 59.7552 38.325L59.614 39.2034C59.5609 39.5373 59.8189 39.8395 60.1573 39.8395H63.0027C63.4537 39.8395 63.8375 39.5115 63.908 39.0661L65.6162 28.2501C65.6689 27.9159 65.4109 27.6143 65.0729 27.6143ZM60.6697 33.7641C60.3646 35.5692 58.9313 36.7812 57.1034 36.7812C56.1871 36.7812 55.4534 36.4864 54.9819 35.9283C54.5145 35.3753 54.3387 34.587 54.487 33.7093C54.7714 31.9202 56.2277 30.669 58.0278 30.669C58.9248 30.669 59.6534 30.9665 60.1341 31.5299C60.6181 32.0972 60.8082 32.8905 60.6697 33.7641Z" fill="white"/>
<path d="M112.134 27.6143H108.975C108.704 27.6143 108.474 27.8112 108.432 28.0787L108.293 28.9621L108.072 28.6421C107.387 27.649 105.862 27.3171 104.34 27.3171C100.849 27.3171 97.8671 29.9624 97.2871 33.6722C96.9849 35.523 97.4137 37.2919 98.4632 38.5264C99.4273 39.6607 100.803 40.1328 102.443 40.1328C105.256 40.1328 106.817 38.325 106.817 38.325L106.676 39.2034C106.622 39.5373 106.88 39.8395 107.219 39.8395H110.064C110.515 39.8395 110.899 39.5115 110.97 39.0661L112.678 28.2501C112.73 27.9159 112.472 27.6143 112.134 27.6143ZM107.731 33.7641C107.426 35.5692 105.993 36.7812 104.165 36.7812C103.249 36.7812 102.515 36.4864 102.043 35.9283C101.576 35.3753 101.4 34.587 101.548 33.7093C101.833 31.9202 103.289 30.669 105.089 30.669C105.986 30.669 106.715 30.9665 107.196 31.5299C107.679 32.0972 107.869 32.8905 107.731 33.7641Z" fill="white"/>
<path d="M81.9009 27.6143H78.7252C78.4215 27.6143 78.1374 27.7653 77.9666 28.0164L73.586 34.4682L71.7293 28.2682C71.613 27.8803 71.256 27.614 70.8512 27.614H67.7294C67.3525 27.614 67.0874 27.9847 67.2087 28.3417L70.7056 38.6059L67.4166 43.2463C67.1583 43.6108 67.4189 44.1146 67.8655 44.1146H71.038C71.3387 44.1146 71.6201 43.9672 71.7915 43.7199L82.3528 28.4776C82.6055 28.1131 82.3445 27.6143 81.9009 27.6143Z" fill="white"/>
<path d="M115.858 21.9754L113.15 39.204C113.097 39.5376 113.355 39.8395 113.693 39.8395H116.417C116.868 39.8395 117.252 39.5115 117.323 39.0658L119.993 22.1468C120.046 21.8129 119.788 21.511 119.449 21.511H116.402C116.131 21.5107 115.9 21.7079 115.858 21.9754Z" fill="white"/>
<path opacity="0.68" d="M22.2354 22.3971C22.5906 20.1321 22.233 18.5912 21.008 17.1951C19.6593 15.6583 17.2228 15 14.1055 15H5.05658C4.41959 15 3.8769 15.4635 3.77786 16.0931L0.00960559 39.9866C-0.0645317 40.4582 0.299927 40.8843 0.776778 40.8843H6.36317L5.97766 43.3293C5.91271 43.7418 6.23121 44.1146 6.64875 44.1146H11.3577C11.9149 44.1146 12.3893 43.7092 12.4762 43.1585L12.5225 42.9189L13.4095 37.294L13.4667 36.9832C13.5536 36.4328 14.0281 36.0268 14.5853 36.0268H15.2896C19.8514 36.0268 23.4233 34.1737 24.4669 28.8139C24.9031 26.5743 24.6775 24.7049 23.5242 23.3906C23.1757 22.9938 22.7416 22.6652 22.2354 22.3971Z" fill="white"/>
<path opacity="0.7" d="M22.2354 22.3971C22.5906 20.1321 22.233 18.5912 21.008 17.1951C19.6592 15.6583 17.2228 15 14.1055 15H5.05657C4.41959 15 3.8769 15.4635 3.77786 16.0931L0.00960559 39.9866C-0.0645317 40.4582 0.299927 40.8843 0.776778 40.8843H6.36317L7.76644 31.9857L7.72285 32.2648C7.82219 31.6355 8.35984 31.1717 8.99712 31.1717H11.6524C16.8669 31.1717 20.9501 29.0532 22.1428 22.9265C22.1784 22.7456 22.2084 22.5697 22.2354 22.3971Z" fill="white"/>
<path d="M9.2741 22.4271C9.3337 22.0487 9.57687 21.7385 9.90397 21.5819C10.0525 21.5107 10.2189 21.471 10.393 21.471H17.4861C18.3266 21.471 19.11 21.5262 19.8262 21.6415C20.0308 21.6744 20.2301 21.7124 20.4238 21.7554C20.6171 21.7984 20.8051 21.8461 20.9869 21.8995C21.0779 21.9259 21.1672 21.9541 21.2553 21.9831C21.607 22.1 21.9347 22.2376 22.236 22.3974C22.5912 20.1324 22.2336 18.5915 21.0085 17.1954C19.6592 15.6583 17.2228 15 14.1055 15H5.05658C4.41959 15 3.8769 15.4635 3.77786 16.0931L0.00960559 39.9866C-0.0645317 40.4582 0.299927 40.8843 0.776778 40.8843H6.36317L7.76644 31.9857L9.2741 22.4271Z" fill="white"/>
</svg>
