<svg width="120" height="60" viewBox="0 0 120 60" fill="none" xmlns="http://www.w3.org/2000/svg">
<path fill-rule="evenodd" clip-rule="evenodd" d="M93.171 27.6918C92.8103 30.0607 91.0011 30.0607 89.2512 30.0607H88.2555L88.954 25.6379C88.9961 25.3707 89.2266 25.1738 89.4974 25.1738H89.9538C91.1447 25.1738 92.2699 25.1738 92.8501 25.8524C93.1971 26.2584 93.3021 26.8602 93.171 27.6918ZM92.4093 21.5117H85.8098C85.3587 21.5117 84.9746 21.84 84.9043 22.2858L82.2359 39.2074C82.1831 39.5411 82.4411 39.843 82.7792 39.843H86.1652C86.481 39.843 86.75 39.6131 86.799 39.3011L87.5559 34.504C87.6262 34.0582 88.0103 33.7299 88.4614 33.7299H90.5497C94.8966 33.7299 97.4052 31.6262 98.0609 27.4569C98.356 25.6335 98.0728 24.2006 97.2189 23.1976C96.2805 22.0948 94.6172 21.5117 92.4093 21.5117Z" fill="#2790C3"/>
<path fill-rule="evenodd" clip-rule="evenodd" d="M46.1026 27.6918C45.7419 30.0607 43.9327 30.0607 42.1831 30.0607H41.1874L41.8856 25.6379C41.928 25.3707 42.1585 25.1738 42.4289 25.1738H42.8854C44.0765 25.1738 45.2018 25.1738 45.7816 25.8524C46.129 26.2584 46.2339 26.8602 46.1026 27.6918ZM45.3412 21.5117H38.7417C38.2906 21.5117 37.9065 21.84 37.8362 22.2858L35.1674 39.2074C35.115 39.5411 35.373 39.843 35.7108 39.843H38.8618C39.3129 39.843 39.6973 39.5147 39.7676 39.0692L40.4877 34.504C40.5577 34.0582 40.9421 33.7299 41.3932 33.7299H43.4816C47.8281 33.7299 50.337 31.6262 50.9928 27.4569C51.2879 25.6335 51.0047 24.2006 50.1508 23.1976C49.212 22.0948 47.5487 21.5117 45.3412 21.5117Z" fill="#27346A"/>
<path fill-rule="evenodd" clip-rule="evenodd" d="M60.6615 33.7668C60.3563 35.5725 58.9229 36.7846 57.0947 36.7846C56.1782 36.7846 55.4444 36.4898 54.9729 35.9316C54.5054 35.3782 54.3295 34.5898 54.4776 33.7119C54.7623 31.9226 56.2186 30.6712 58.0189 30.6712C58.9164 30.6712 59.6448 30.969 60.1259 31.5323C60.6099 32.0996 60.8 32.8933 60.6615 33.7668ZM65.0653 27.6163H61.9054C61.6346 27.6163 61.4042 27.813 61.3621 28.0808L61.223 28.9643L61.002 28.644C60.3178 27.6507 58.7927 27.3188 57.2697 27.3188C53.7785 27.3188 50.7962 29.9645 50.2158 33.6751C49.9136 35.5262 50.3424 37.2951 51.3921 38.5298C52.3563 39.6643 53.7325 40.1364 55.3721 40.1364C58.1862 40.1364 59.7468 38.3287 59.7468 38.3287L59.6057 39.2069C59.5529 39.5409 59.8109 39.8431 60.149 39.8431H62.9948C63.4459 39.8431 63.83 39.5151 63.9003 39.0693L65.6087 28.2519C65.6615 27.918 65.4035 27.6163 65.0653 27.6163Z" fill="#27346A"/>
<path fill-rule="evenodd" clip-rule="evenodd" d="M107.73 33.7668C107.425 35.5725 105.991 36.7846 104.163 36.7846C103.246 36.7846 102.513 36.4898 102.041 35.9316C101.574 35.3782 101.398 34.5898 101.546 33.7119C101.83 31.9226 103.287 30.6712 105.087 30.6712C105.985 30.6712 106.713 30.969 107.194 31.5323C107.678 32.0996 107.868 32.8933 107.73 33.7668ZM112.134 27.6163H108.974C108.703 27.6163 108.472 27.813 108.43 28.0808L108.291 28.9643L108.071 28.644C107.386 27.6507 105.861 27.3188 104.338 27.3188C100.847 27.3188 97.8644 29.9645 97.284 33.6751C96.9821 35.5262 97.411 37.2951 98.4603 38.5298C99.4248 39.6643 100.801 40.1364 102.44 40.1364C105.254 40.1364 106.815 38.3287 106.815 38.3287L106.674 39.2069C106.621 39.5409 106.879 39.8431 107.218 39.8431H110.063C110.514 39.8431 110.898 39.5151 110.969 39.0693L112.677 28.2519C112.73 27.918 112.472 27.6163 112.134 27.6163Z" fill="#2790C3"/>
<mask id="mask0" mask-type="alpha" maskUnits="userSpaceOnUse" x="0" y="15" width="121" height="30">
<path d="M0.000244141 44.1193H120V15H0.000244141V44.1193Z" fill="white"/>
</mask>
<g mask="url(#mask0)">
<path fill-rule="evenodd" clip-rule="evenodd" d="M81.8958 27.6162H78.7196C78.4159 27.6162 78.1318 27.7669 77.9612 28.0181L73.5799 34.4711L71.723 28.2702C71.607 27.8823 71.2499 27.6162 70.8448 27.6162H67.7225C67.3455 27.6162 67.0801 27.987 67.2017 28.3438L70.6991 38.6095L67.4096 43.2511C67.1513 43.6154 67.412 44.1193 67.8584 44.1193H71.0316C71.3324 44.1193 71.6138 43.9719 71.7853 43.7245L82.3481 28.4799C82.6008 28.1151 82.3398 27.6162 81.8958 27.6162Z" fill="#27346A"/>
<path fill-rule="evenodd" clip-rule="evenodd" d="M115.858 21.9765L113.15 39.2074C113.097 39.5413 113.355 39.843 113.693 39.843H116.417C116.869 39.843 117.253 39.5147 117.323 39.0692L119.993 22.1476C120.046 21.8137 119.788 21.5117 119.45 21.5117H116.402C116.131 21.5117 115.9 21.709 115.858 21.9765Z" fill="#2790C3"/>
<path fill-rule="evenodd" clip-rule="evenodd" d="M12.4845 42.9197L13.3717 37.2945L13.4289 36.9827C13.4716 36.7117 13.6104 36.4637 13.8195 36.2852C14.0286 36.1066 14.2953 36.0081 14.5702 36.0081H15.2746C16.4488 36.0081 17.5275 35.8827 18.4811 35.6353C19.4984 35.3716 20.4033 34.9609 21.1703 34.4154C21.9836 33.8371 22.6666 33.0894 23.2008 32.1936C23.7643 31.2487 24.178 30.111 24.4307 28.8125C24.6541 27.6658 24.6959 26.6393 24.5556 25.7611C24.407 24.8334 24.0496 24.0418 23.4935 23.4077C23.1563 23.0236 22.7247 22.6908 22.211 22.4185L22.1989 22.412L22.1986 22.3972C22.378 21.2526 22.3712 20.2979 22.1781 19.476C21.9841 18.6524 21.5915 17.9112 20.9766 17.2106C19.7027 15.7591 17.3858 15.0229 14.0903 15.0229H5.03975C4.73722 15.0229 4.4436 15.1312 4.21344 15.3278C3.98328 15.5245 3.83083 15.7977 3.78338 16.0966L0.0148602 39.9941C-0.0195446 40.2121 0.0430366 40.4336 0.186588 40.6009C0.330139 40.7691 0.538941 40.8654 0.759607 40.8654H6.37442L6.36938 40.8921L5.98381 43.3373C5.95415 43.5274 6.00872 43.7202 6.13359 43.8661C6.25845 44.0123 6.44026 44.0965 6.63246 44.0965H11.3418C11.606 44.0965 11.862 44.0019 12.0628 43.8302C12.2636 43.6585 12.3971 43.4203 12.4383 43.1596L12.4845 42.9197Z" fill="#27346A"/>
<path fill-rule="evenodd" clip-rule="evenodd" d="M9.25823 22.4282C9.31784 22.0494 9.56075 21.7395 9.88789 21.5826C10.0368 21.5114 10.2029 21.4717 10.377 21.4717H17.4712C18.3117 21.4717 19.0953 21.5268 19.8119 21.6422C20.0166 21.6751 20.2156 21.7131 20.4093 21.7561C20.6029 21.7991 20.7907 21.8469 20.9725 21.9003C21.0635 21.9266 21.1528 21.9545 21.2409 21.9839C21.5927 22.1007 21.9201 22.2384 22.2214 22.3979C22.5768 20.1328 22.2191 18.5915 20.9938 17.1954C19.6449 15.6584 17.2081 15 14.0903 15H5.03977C4.40269 15 3.86022 15.4636 3.76086 16.0929L-0.00765591 39.9904C-0.0821009 40.462 0.282413 40.8882 0.759632 40.8882H6.34686L9.25823 22.4282Z" fill="#27346A"/>
</g>
<path fill-rule="evenodd" clip-rule="evenodd" d="M22.2212 22.3979C22.1942 22.5709 22.1643 22.7467 22.1287 22.928C20.9355 29.0559 16.852 31.1745 11.6367 31.1745H8.98098C8.3439 31.1745 7.80588 31.6383 7.70652 32.2677L5.96106 43.3339C5.89611 43.7462 6.21495 44.1193 6.63225 44.1193H11.3419C11.8992 44.1193 12.3737 43.7138 12.4606 43.1631L12.5069 42.9237L13.394 37.2979L13.4512 36.9871C13.5381 36.4363 14.0127 36.0309 14.57 36.0309H15.2744C19.8369 36.0309 23.4094 34.1772 24.4534 28.8165C24.8894 26.5767 24.664 24.7069 23.5105 23.3924C23.1617 22.995 22.7275 22.6661 22.2212 22.3979Z" fill="#2790C3"/>
<path fill-rule="evenodd" clip-rule="evenodd" d="M20.9723 21.9003C20.7905 21.8469 20.6027 21.7991 20.4091 21.7561C20.2154 21.7131 20.0164 21.6751 19.8117 21.6422C19.0951 21.5268 18.3115 21.4717 17.471 21.4717H10.3768C10.2027 21.4717 10.0366 21.5114 9.88769 21.5826C9.56055 21.7395 9.31764 22.0494 9.25802 22.4282L7.75014 31.9886L7.70654 32.2677C7.8059 31.6383 8.34392 31.1744 8.98101 31.1744H11.6367C16.852 31.1744 20.9355 29.0559 22.1287 22.928C22.1643 22.7467 22.1943 22.5709 22.2212 22.3979C21.9199 22.2384 21.5925 22.1008 21.2407 21.9839C21.1526 21.9545 21.0633 21.9267 20.9723 21.9003Z" fill="#1F264F"/>
</svg>
